<?xml version="1.0" standalone="no"?>
<!DOCTYPE svg PUBLIC "-//W3C//DTD SVG 20010904//EN"
 "http://www.w3.org/TR/2001/REC-SVG-20010904/DTD/svg10.dtd">
<svg version="1.0" xmlns="http://www.w3.org/2000/svg"
 width="500.000000pt" height="500.000000pt" viewBox="0 0 500.000000 500.000000"
 preserveAspectRatio="xMidYMid meet">

<g transform="translate(0.000000,500.000000) scale(0.100000,-0.100000)"
fill="#000000" stroke="none">
<path d="M0 2500 l0 -2500 2500 0 2500 0 0 2500 0 2500 -2500 0 -2500 0 0
-2500z m2437 1550 l52 0 78 -100 78 -100 2 62 c2 35 5 78 8 96 6 32 6 32 65
32 l60 0 0 -112 c0 -62 -3 -130 -6 -150 l-7 -38 -72 0 -72 0 -79 103 -79 102
-3 -97 -3 -98 -64 0 -65 0 0 78 c0 44 3 114 7 156 6 72 7 77 27 72 12 -3 44
-6 73 -6z m-173 -109 c30 -113 27 -148 -15 -191 -58 -57 -199 -89 -269 -60
-16 7 -38 26 -49 44 -17 28 -61 167 -61 193 0 6 27 17 60 26 54 13 60 13 64
-2 3 -9 12 -43 21 -76 24 -85 39 -105 79 -105 20 0 40 8 51 21 19 20 19 22 -5
115 -13 52 -21 96 -19 98 4 3 95 32 110 35 3 1 18 -43 33 -98z m688 43 c34
-10 57 -22 55 -28 -2 -6 -21 -71 -42 -144 l-38 -133 -31 7 c-17 4 -44 12 -62
18 l-31 11 41 143 c22 78 43 142 45 142 3 0 31 -7 63 -16z m196 -64 c50 -30
52 -32 47 -68 -2 -20 -7 -72 -10 -115 l-6 -78 95 70 94 70 57 -31 c51 -27 55
-31 38 -43 -60 -41 -264 -165 -273 -165 -5 0 -29 10 -54 21 -37 19 -45 28 -50
58 -8 52 -7 311 2 311 4 0 31 -14 60 -30z m-1433 -106 c19 -29 13 -42 -41 -75
l-34 -21 53 -74 c28 -41 58 -83 65 -93 11 -17 7 -22 -39 -56 -28 -20 -54 -33
-58 -28 -74 109 -125 172 -134 166 -7 -3 -26 -17 -43 -30 -17 -13 -34 -23 -38
-23 -9 0 -45 41 -46 52 0 7 280 208 291 208 3 0 14 -12 24 -26z m2047 -357
l20 -28 -23 -25 -23 -25 -77 77 c-68 67 -80 76 -94 64 -14 -12 -12 -17 22 -54
90 -96 89 -93 68 -116 -19 -21 -19 -21 -85 45 -59 59 -68 64 -80 50 -12 -14
-4 -26 63 -93 42 -43 77 -82 77 -87 0 -5 -10 -19 -22 -32 l-22 -24 -128 128
-128 128 107 107 108 108 98 -98 c54 -53 108 -110 119 -125z m-2317 27 c63
-48 115 -89 115 -93 0 -3 -20 -32 -45 -63 l-45 -58 -63 -1 c-34 -1 -91 -4
-125 -8 l-64 -6 68 -50 c37 -27 72 -53 77 -57 8 -5 -57 -108 -68 -108 -13 0
-230 175 -229 185 1 6 18 35 39 63 l38 50 116 7 c64 3 122 7 130 8 8 1 -20 28
-63 60 -48 37 -74 62 -70 70 12 21 65 87 70 87 2 0 56 -39 119 -86z m1241 71
c338 -58 615 -248 790 -541 108 -181 154 -354 154 -583 0 -213 -30 -342 -118
-516 -146 -284 -410 -495 -727 -581 -90 -24 -118 -27 -275 -28 -191 -1 -248 8
-401 64 -373 136 -648 464 -724 861 -17 93 -20 294 -5 388 16 94 67 245 113
336 162 312 476 541 827 600 105 18 261 18 366 0z m1266 -402 c65 -133 62
-195 -9 -228 -26 -13 -41 -14 -64 -6 -17 6 -29 6 -29 1 0 -11 -59 -80 -69 -80
-4 0 -19 24 -33 54 l-27 54 25 23 c29 27 30 57 4 109 -23 45 -28 47 -71 24
-17 -8 -32 -14 -34 -12 -1 2 -14 27 -29 55 l-26 52 22 15 c13 8 72 39 133 69
l110 55 29 -52 c16 -28 47 -88 68 -133z m-2913 -54 c17 -6 31 -16 31 -23 0 -7
-13 -52 -30 -100 -16 -49 -27 -92 -24 -97 15 -25 35 -2 62 74 24 66 34 81 49
79 34 -7 35 -20 9 -99 -31 -93 -31 -89 -8 -95 15 -4 24 13 56 104 38 107 39
109 65 103 14 -4 30 -10 35 -15 8 -8 -84 -298 -105 -331 -5 -8 -48 2 -147 35
l-141 47 56 165 c31 90 57 164 58 164 1 0 16 -5 34 -11z m3005 -249 c53 -47
86 -167 66 -240 -11 -40 -41 -80 -59 -80 -16 0 -25 41 -26 118 -1 52 -5 77
-17 88 -15 15 -16 9 -11 -84 6 -99 5 -100 -21 -127 -21 -21 -33 -26 -54 -20
-69 17 -105 65 -123 167 -15 82 -2 136 39 168 l27 22 13 -54 c7 -29 10 -70 7
-91 -5 -37 7 -77 24 -77 4 0 6 44 3 99 -4 91 -3 100 17 120 30 30 73 27 115
-9z m-2878 -292 c-4 -68 -9 -147 -13 -176 l-6 -54 -106 6 c-58 4 -126 9 -150
12 l-44 6 6 60 c3 33 7 61 9 62 1 1 50 -1 108 -5 58 -3 107 -5 109 -3 2 2 6
51 9 109 l5 105 40 0 40 0 -7 -122z m2964 -163 l0 -65 -150 0 -150 0 0 65 0
65 150 0 150 0 0 -65z m-3020 -128 c41 -27 67 -70 86 -139 39 -148 -9 -244
-127 -256 -63 -6 -111 23 -143 87 -31 60 -49 152 -41 202 18 104 142 163 225
106z m3019 -13 c5 -5 -60 -330 -69 -344 -4 -6 -20 -8 -38 -4 -35 7 -37 15 -22
79 5 22 8 41 6 42 -1 2 -49 12 -107 24 -57 12 -106 23 -107 24 -3 3 18 116 23
123 2 1 44 -6 96 -18 125 -27 126 -27 133 18 13 70 14 72 49 65 18 -3 34 -7
36 -9z m-2879 -399 c51 -26 114 -129 125 -202 5 -29 1 -46 -16 -72 l-21 -35
-34 60 c-19 32 -34 71 -34 86 0 16 -9 33 -22 43 -33 22 -33 6 2 -66 37 -80 40
-141 8 -163 -53 -37 -125 -7 -178 75 -50 77 -65 138 -46 183 8 18 18 36 24 40
12 7 72 -96 72 -125 0 -29 18 -59 35 -59 19 0 20 -4 -15 73 -37 82 -40 139 -8
161 28 20 71 20 108 1z m2521 -55 l60 -31 99 33 c55 17 102 30 105 27 3 -3 -9
-30 -25 -61 -28 -51 -34 -56 -89 -73 l-58 -17 18 -60 18 -60 -34 -60 -33 -61
-22 74 c-12 41 -26 90 -32 109 -8 29 -20 41 -65 65 -30 16 -57 34 -59 40 -4
11 43 105 52 105 3 0 32 -14 65 -30z"/>
<path d="M2282 3524 c-30 -8 -72 -22 -95 -32 l-40 -18 87 -12 87 -13 37 29
c20 16 51 36 67 45 l30 16 -60 0 c-33 0 -84 -7 -113 -15z"/>
<path d="M2473 3521 c-49 -17 -123 -64 -123 -79 0 -11 85 -43 130 -49 30 -4
55 1 98 20 31 14 86 34 121 43 l64 18 -44 19 c-45 19 -152 47 -179 47 -8 -1
-38 -9 -67 -19z"/>
<path d="M2759 3500 c24 -11 51 -20 60 -19 19 0 -67 38 -89 38 -8 0 5 -8 29
-19z"/>
<path d="M2851 3456 c36 -35 135 -97 152 -94 18 2 8 13 -49 51 -40 26 -80 47
-90 47 -9 0 -15 -2 -13 -4z"/>
<path d="M2044 3415 c-27 -19 -47 -35 -44 -35 3 0 41 7 85 15 44 8 110 14 147
15 37 0 69 4 72 9 8 13 -83 31 -153 31 -50 0 -64 -5 -107 -35z"/>
<path d="M2695 3435 c-27 -7 -72 -23 -100 -35 l-50 -21 100 -33 c55 -19 121
-43 147 -54 38 -17 47 -18 52 -7 3 8 28 27 57 44 l51 29 -68 46 c-76 51 -101
55 -189 31z"/>
<path d="M2961 3436 c47 -44 145 -103 155 -93 8 7 -43 47 -92 71 -46 23 -75
33 -63 22z"/>
<path d="M1960 3405 c-25 -13 -61 -37 -80 -54 l-35 -31 50 21 c45 18 141 90
119 89 -5 -1 -29 -12 -54 -25z"/>
<path d="M2111 3379 c-116 -20 -154 -37 -207 -92 -56 -58 -93 -107 -117 -154
l-17 -32 58 -6 c31 -3 91 -17 132 -32 118 -40 139 -37 197 27 42 47 50 63 65
131 9 42 26 96 37 120 12 23 21 44 21 46 0 6 -116 0 -169 -8z"/>
<path d="M2281 3344 c-23 -48 -51 -135 -51 -162 0 -8 30 13 68 46 37 32 91 75
121 95 48 32 51 36 33 46 -10 5 -48 13 -83 17 l-64 6 -24 -48z"/>
<path d="M2586 3311 c38 -27 97 -75 132 -106 35 -32 64 -56 66 -54 1 2 8 22
15 44 7 22 14 45 17 51 7 17 -239 114 -290 114 -5 0 22 -22 60 -49z"/>
<path d="M2409 3292 c-36 -26 -94 -71 -127 -101 -56 -49 -62 -58 -62 -93 l0
-39 68 8 c37 4 163 7 280 7 l212 -1 0 27 c0 21 -17 41 -80 95 -93 80 -188 145
-210 145 -8 -1 -45 -22 -81 -48z"/>
<path d="M2930 3324 c-19 -8 -45 -25 -57 -36 l-23 -21 81 -49 c44 -27 96 -60
115 -74 30 -24 36 -25 69 -14 l36 12 -37 46 c-43 55 -136 152 -144 152 -3 -1
-21 -8 -40 -16z"/>
<path d="M3057 3286 c29 -31 65 -75 80 -97 23 -33 32 -38 53 -33 14 3 27 8 30
10 10 10 -156 163 -185 170 -29 7 -29 6 22 -50z"/>
<path d="M3160 3266 c30 -31 56 -56 58 -56 2 0 -7 17 -18 39 -14 23 -37 45
-59 55 -36 17 -35 17 19 -38z"/>
<path d="M1842 3292 c-34 -16 -84 -102 -98 -167 -5 -23 2 -16 31 30 20 33 54
81 76 108 43 51 42 55 -9 29z"/>
<path d="M3220 3256 c0 -3 8 -21 17 -41 13 -28 22 -35 45 -35 15 0 28 2 28 4
0 2 -20 20 -45 40 -25 21 -45 35 -45 32z"/>
<path d="M2816 3204 c-22 -66 -21 -75 22 -117 54 -53 84 -55 160 -14 l64 34
-49 35 c-26 20 -78 52 -114 72 l-67 37 -16 -47z"/>
<path d="M1701 3193 c-54 -47 -146 -162 -137 -171 3 -2 17 5 31 16 14 12 48
28 76 37 32 11 49 22 49 33 0 9 11 43 24 75 13 31 21 57 17 57 -3 0 -31 -21
-60 -47z"/>
<path d="M3270 3151 c0 -6 20 -38 45 -71 l44 -61 11 42 c10 37 9 45 -8 68 -13
18 -30 27 -55 29 -21 2 -37 -1 -37 -7z"/>
<path d="M3198 3142 c-15 -6 -10 -18 33 -92 l50 -85 -6 54 c-14 108 -34 140
-77 123z"/>
<path d="M3127 3117 l-28 -12 78 -70 77 -70 -34 62 c-54 97 -60 104 -93 90z"/>
<path d="M2172 3080 c-17 -23 -19 -30 -8 -30 30 0 46 13 46 36 0 32 -12 30
-38 -6z"/>
<path d="M2790 3080 c0 -13 7 -20 20 -20 18 0 19 2 8 20 -7 11 -16 20 -20 20
-5 0 -8 -9 -8 -20z"/>
<path d="M3010 3061 l-55 -29 45 -11 c25 -6 83 -25 130 -43 47 -17 92 -33 100
-35 8 -2 -21 30 -65 71 -44 42 -84 76 -90 76 -5 -1 -35 -14 -65 -29z"/>
<path d="M1746 3058 c-16 -25 -41 -146 -32 -155 2 -2 30 9 62 25 33 16 97 42
144 58 47 15 89 31 93 35 14 11 -112 49 -185 56 -62 5 -67 4 -82 -19z"/>
<path d="M3291 3033 c4 -27 10 -61 11 -78 l4 -30 19 37 18 37 -27 41 c-14 22
-28 40 -30 40 -2 0 0 -21 5 -47z"/>
<path d="M3382 3040 c-11 -38 -10 -44 14 -85 19 -33 32 -45 49 -45 13 0 30 -3
39 -6 9 -4 16 -1 16 6 0 14 -91 170 -99 170 -4 0 -12 -18 -19 -40z"/>
<path d="M1663 3053 c-57 -20 -137 -93 -158 -145 -15 -39 -45 -172 -45 -203 0
-7 29 16 64 50 35 34 76 70 92 80 24 14 35 35 63 121 19 58 32 106 30 108 -2
2 -23 -3 -46 -11z"/>
<path d="M2283 3051 c-28 -4 -55 -10 -59 -13 -4 -4 -3 -34 2 -65 9 -57 11 -60
115 -161 l105 -102 93 69 c50 38 127 92 169 120 l77 50 -3 49 -4 49 -51 7
c-65 7 -374 5 -444 -3z"/>
<path d="M2153 3033 c-49 -6 -48 -28 2 -63 24 -16 46 -30 49 -30 3 0 6 23 6
50 0 34 -4 49 -12 48 -7 0 -27 -3 -45 -5z"/>
<path d="M2794 3009 c3 -17 6 -36 6 -41 0 -8 57 20 80 40 11 8 -35 32 -63 32
-28 0 -29 -2 -23 -31z"/>
<path d="M2917 3013 c-4 -6 84 -137 107 -161 2 -1 45 7 97 19 52 11 105 23
118 25 21 5 18 8 -30 31 -59 27 -252 93 -274 93 -8 0 -16 -3 -18 -7z"/>
<path d="M1950 2976 c-106 -37 -197 -77 -221 -97 -14 -12 -15 -26 -8 -99 14
-136 39 -239 61 -251 11 -6 21 -9 23 -7 1 2 29 59 62 128 33 69 94 175 135
237 41 62 73 115 70 118 -9 9 -24 5 -122 -29z"/>
<path d="M2044 2917 c-28 -40 -71 -106 -95 -147 -44 -76 -119 -237 -119 -255
0 -13 95 -85 112 -85 7 0 27 9 45 19 17 11 91 47 165 81 73 34 136 65 140 69
4 3 -3 38 -16 77 -14 39 -32 108 -42 153 -17 78 -20 84 -58 110 -82 56 -76 57
-132 -22z"/>
<path d="M2843 2969 c-18 -12 -33 -29 -33 -38 0 -17 29 -123 35 -129 3 -4 147
38 154 44 7 6 -101 144 -112 144 -7 0 -27 -10 -44 -21z"/>
<path d="M3339 2953 c-7 -16 -15 -31 -17 -35 -2 -5 12 -8 32 -8 20 0 36 2 36
5 0 8 -30 65 -34 65 -1 0 -9 -12 -17 -27z"/>
<path d="M2730 2898 c-25 -17 -98 -70 -163 -117 -98 -70 -115 -87 -104 -98 11
-11 31 -7 118 26 57 21 137 49 177 62 50 16 71 27 67 36 -2 8 -12 38 -21 68
-8 30 -18 55 -22 55 -4 -1 -27 -15 -52 -32z"/>
<path d="M1677 2891 c-4 -17 -3 -21 5 -13 5 5 8 16 6 23 -3 8 -7 3 -11 -10z"/>
<path d="M2240 2876 c0 -38 66 -266 76 -266 7 0 113 84 113 90 1 3 -42 48 -94
100 -64 64 -95 89 -95 76z"/>
<path d="M3365 2864 c22 -15 50 -36 63 -47 27 -25 28 -18 2 33 -19 37 -24 40
-63 40 l-42 0 40 -26z"/>
<path d="M3441 2883 c0 -5 13 -35 28 -68 l28 -60 21 34 c24 39 18 69 -19 88
-27 14 -59 17 -58 6z"/>
<path d="M3126 2859 c-49 -10 -90 -20 -92 -21 -1 -2 17 -36 41 -76 l43 -72 49
57 c27 32 62 75 77 96 l28 37 -28 -1 c-16 0 -69 -9 -118 -20z"/>
<path d="M1671 2847 c-13 -16 -37 -128 -46 -219 l-7 -68 28 0 c16 0 44 -4 63
-10 l33 -9 -7 32 c-21 99 -34 188 -35 235 0 52 -8 63 -29 39z"/>
<path d="M3212 2775 c-91 -110 -88 -100 -53 -177 30 -65 32 -67 56 -56 13 6
27 18 29 27 16 53 37 197 34 236 l-3 45 -63 -75z"/>
<path d="M3392 2775 c48 -73 51 -75 69 -59 11 9 19 21 19 25 0 9 -121 109
-131 109 -4 0 16 -34 43 -75z"/>
<path d="M2928 2808 c-38 -12 -68 -25 -68 -31 0 -15 79 -159 106 -192 l24 -30
55 55 c30 30 55 58 55 63 0 18 -84 157 -94 156 -6 -1 -41 -10 -78 -21z"/>
<path d="M3300 2795 c0 -22 -7 -78 -15 -124 -8 -47 -13 -86 -11 -88 1 -2 22
11 45 27 29 21 40 36 37 48 -3 9 -12 46 -21 82 -22 87 -34 106 -35 55z"/>
<path d="M3335 2815 c4 -11 14 -50 23 -87 17 -68 29 -81 52 -53 10 12 5 25
-24 72 -48 78 -60 94 -51 68z"/>
<path d="M1540 2740 c-87 -87 -89 -92 -74 -203 l7 -47 28 24 c16 14 44 29 63
36 l34 11 11 92 c7 51 16 109 20 130 5 21 5 37 0 37 -5 0 -45 -36 -89 -80z"/>
<path d="M3526 2768 c-17 -27 -17 -28 11 -63 34 -42 41 -26 20 45 l-13 45 -18
-27z"/>
<path d="M2670 2724 c-85 -31 -162 -58 -172 -61 -13 -4 -7 -18 35 -81 29 -42
77 -125 108 -185 l56 -110 44 39 c122 107 229 207 229 214 0 4 -19 36 -42 72
-24 35 -54 88 -67 116 -14 29 -27 52 -30 51 -3 0 -76 -25 -161 -55z"/>
<path d="M1433 2685 c0 -22 2 -30 4 -17 2 12 2 30 0 40 -3 9 -5 -1 -4 -23z"/>
<path d="M3466 2701 c-17 -18 -16 -22 12 -88 16 -37 35 -86 42 -108 22 -74 20
-72 31 -53 6 11 6 34 -1 65 -11 49 -59 203 -64 203 -2 0 -11 -9 -20 -19z"/>
<path d="M3520 2690 c0 -3 11 -39 24 -80 22 -67 25 -72 31 -47 4 15 2 40 -4
55 -11 26 -50 82 -51 72z"/>
<path d="M2399 2654 c-19 -15 -25 -23 -14 -19 11 4 32 12 47 17 16 5 25 14 22
19 -8 14 -17 11 -55 -17z"/>
<path d="M3403 2651 c-21 -17 -22 -23 -13 -77 6 -33 10 -101 10 -151 0 -102 4
-107 58 -79 49 25 65 51 57 92 -8 48 -62 197 -78 217 -11 14 -14 14 -34 -2z"/>
<path d="M2390 2620 c-39 -17 -64 -34 -62 -42 14 -56 191 -358 210 -358 4 0
37 12 74 27 58 24 67 31 62 48 -22 73 -184 345 -209 351 -6 1 -39 -10 -75 -26z"/>
<path d="M3051 2596 l-53 -54 37 -40 37 -41 49 27 c27 15 49 31 49 36 0 14
-52 126 -59 126 -4 0 -31 -24 -60 -54z"/>
<path d="M3308 2586 c-41 -27 -48 -38 -63 -92 -14 -52 -15 -68 -4 -103 7 -23
21 -46 30 -52 30 -16 106 -23 113 -10 9 14 -11 272 -22 282 -4 4 -28 -7 -54
-25z"/>
<path d="M1430 2590 c-5 -36 2 -126 10 -134 17 -17 19 18 6 84 -8 36 -15 58
-16 50z"/>
<path d="M2195 2481 c-60 -54 -122 -112 -138 -128 l-27 -30 44 -66 c25 -37 55
-90 68 -117 13 -28 26 -50 30 -50 11 0 302 102 325 114 21 11 20 13 -38 100
-32 49 -79 131 -104 182 -26 52 -47 94 -48 94 -1 0 -51 -45 -112 -99z"/>
<path d="M2100 2489 c-80 -39 -147 -72 -149 -75 -3 -2 10 -20 29 -39 l33 -34
46 39 c71 62 197 179 191 180 -3 0 -70 -32 -150 -71z"/>
<path d="M1620 2468 c0 -80 14 -205 23 -215 3 -2 26 10 52 29 40 28 50 42 65
91 17 53 17 61 2 106 -14 46 -19 50 -58 60 -84 21 -84 22 -84 -71z"/>
<path d="M1545 2521 c-16 -10 -38 -28 -49 -39 -18 -21 -18 -23 8 -104 14 -46
36 -105 48 -132 l23 -48 24 19 c23 19 23 21 12 103 -6 46 -11 114 -11 152 0
75 -5 80 -55 49z"/>
<path d="M3587 2507 c-6 -41 3 -136 14 -143 5 -3 9 33 9 80 0 85 -14 123 -23
63z"/>
<path d="M2925 2472 c-33 -32 -87 -81 -119 -110 -33 -28 -56 -52 -50 -51 5 0
76 32 157 72 l148 72 -38 37 -38 37 -60 -57z"/>
<path d="M3205 2520 c-3 -6 -3 -20 1 -33 7 -21 7 -21 15 -2 4 11 8 26 8 33 1
14 -15 16 -24 2z"/>
<path d="M1397 2500 c-9 -32 -7 -127 2 -160 7 -21 9 -17 14 25 8 62 -5 174
-16 135z"/>
<path d="M1777 2489 c4 -15 8 -17 14 -8 8 14 3 29 -11 29 -4 0 -6 -9 -3 -21z"/>
<path d="M3128 2477 c-21 -12 -38 -24 -38 -27 1 -6 85 -70 93 -70 16 0 24 58
11 88 -15 38 -18 38 -66 9z"/>
<path d="M1805 2459 c-7 -29 10 -90 24 -89 3 1 26 11 50 24 l43 23 -50 36
c-27 20 -52 37 -55 37 -3 0 -8 -14 -12 -31z"/>
<path d="M2920 2371 c-74 -37 -154 -75 -177 -84 l-42 -16 25 -73 c14 -40 34
-110 44 -156 19 -87 28 -100 102 -142 l37 -21 39 53 c62 84 148 235 193 336
22 51 39 95 37 96 -1 1 -27 19 -56 39 -28 20 -55 37 -60 36 -4 0 -68 -31 -142
-68z"/>
<path d="M1452 2415 c-6 -11 -6 -33 0 -59 9 -42 58 -198 64 -205 2 -2 13 4 24
14 19 17 19 18 0 56 -11 21 -33 77 -49 125 -23 68 -31 82 -39 69z"/>
<path d="M3557 2415 c-3 -11 -3 -51 2 -90 6 -57 9 -65 15 -43 10 33 -7 163
-17 133z"/>
<path d="M1873 2373 c-42 -24 -43 -25 -29 -56 7 -18 22 -49 33 -70 l19 -39 54
62 53 61 -34 35 c-18 18 -38 34 -43 33 -6 -1 -30 -12 -53 -26z"/>
<path d="M3210 2383 c0 -13 5 -23 10 -23 13 0 13 11 0 30 -8 12 -10 11 -10 -7z"/>
<path d="M1776 2368 c-9 -35 -7 -39 13 -27 11 7 16 19 13 31 -6 25 -18 23 -26
-4z"/>
<path d="M3501 2356 c-14 -15 -41 -31 -62 -37 l-36 -11 -7 -77 c-4 -42 -12
-98 -18 -124 -5 -27 -7 -51 -4 -54 3 -3 41 30 86 74 l80 79 -1 64 c-1 36 -4
75 -8 88 l-6 24 -24 -26z"/>
<path d="M3171 2293 c-35 -85 -105 -213 -177 -321 -68 -101 -73 -112 -50 -112
26 0 229 75 286 106 l55 29 -3 70 c-7 151 -46 285 -82 285 -4 0 -17 -26 -29
-57z"/>
<path d="M1431 2300 c-1 -31 7 -57 24 -85 30 -49 30 -49 0 50 -23 78 -24 79
-24 35z"/>
<path d="M1788 2324 c-21 -11 -29 -26 -38 -70 -17 -80 -30 -174 -29 -214 l0
-35 22 30 c12 16 47 59 78 95 l55 65 -31 71 -31 72 -26 -14z"/>
<path d="M3264 2305 c8 -21 33 -168 41 -237 8 -68 27 -70 44 -3 14 54 37 233
30 238 -2 2 -30 7 -63 11 -50 5 -57 4 -52 -9z"/>
<path d="M1958 2253 l-57 -58 39 -72 c22 -39 44 -74 49 -78 11 -6 128 21 150
35 11 6 4 26 -28 86 -23 44 -54 94 -69 112 l-27 33 -57 -58z"/>
<path d="M1683 2260 l-42 -30 25 -92 c14 -51 26 -94 28 -95 2 -2 7 25 10 60 4
35 13 92 20 126 7 33 10 61 7 61 -3 -1 -25 -14 -48 -30z"/>
<path d="M2632 2218 c-28 -22 -52 -45 -52 -51 0 -13 178 -192 184 -186 10 10
-55 251 -73 271 -3 4 -30 -11 -59 -34z"/>
<path d="M2588 2223 c-21 -9 -38 -19 -38 -24 0 -19 18 -15 50 12 40 32 39 33
-12 12z"/>
<path d="M3566 2208 c-3 -13 -5 -39 -5 -58 1 -28 3 -25 10 19 9 55 6 80 -5 39z"/>
<path d="M1599 2194 c-11 -13 -9 -22 9 -57 13 -23 31 -53 42 -67 18 -24 18
-20 -3 58 -12 45 -25 82 -28 82 -4 0 -12 -7 -20 -16z"/>
<path d="M1430 2192 c0 -16 21 -105 27 -111 5 -6 32 32 32 44 0 6 -13 26 -29
45 -17 19 -30 29 -30 22z"/>
<path d="M2451 2169 c-41 -15 -117 -43 -170 -60 -53 -17 -98 -33 -100 -35 -5
-4 31 -134 37 -134 16 0 298 196 320 222 10 12 10 17 0 26 -9 7 -35 1 -87 -19z"/>
<path d="M1807 2088 c-69 -84 -74 -93 -53 -96 20 -3 204 33 213 41 3 4 -68
132 -80 143 -2 3 -38 -37 -80 -88z"/>
<path d="M3487 2121 c-32 -33 -74 -70 -92 -83 -28 -18 -40 -38 -61 -98 -14
-41 -29 -90 -34 -108 -7 -30 -7 -32 13 -26 100 31 176 104 201 194 14 49 37
182 32 180 -1 0 -27 -27 -59 -59z"/>
<path d="M1545 2150 c-10 -11 -15 -25 -12 -33 5 -14 116 -102 121 -96 2 2 -18
36 -44 76 -46 70 -48 72 -65 53z"/>
<path d="M2505 2119 c-27 -22 -103 -76 -169 -121 l-118 -80 5 -45 c2 -24 7
-46 10 -50 15 -15 260 -24 387 -14 75 6 142 11 149 11 11 0 13 15 9 63 l-5 62
-109 108 c-60 59 -109 107 -109 106 0 0 -22 -18 -50 -40z"/>
<path d="M1486 2081 c-9 -16 -16 -37 -16 -46 0 -25 38 -55 70 -55 l29 0 -29
61 c-15 33 -31 63 -33 66 -3 3 -13 -9 -21 -26z"/>
<path d="M1575 2020 c16 -32 32 -50 43 -49 20 1 62 17 47 18 -5 1 -34 19 -63
41 l-52 40 25 -50z"/>
<path d="M2077 2046 l-77 -22 17 -24 c9 -14 34 -49 56 -78 l38 -53 37 22 c20
12 41 26 46 30 7 6 -29 151 -37 148 -1 0 -37 -11 -80 -23z"/>
<path d="M1880 1998 c-47 -10 -96 -22 -110 -25 -23 -4 -22 -7 23 -29 59 -31
247 -94 277 -94 15 0 20 5 17 14 -9 24 -108 156 -115 155 -4 -1 -45 -10 -92
-21z"/>
<path d="M3310 1970 c0 -11 2 -20 4 -20 2 0 6 9 9 20 3 11 1 20 -4 20 -5 0 -9
-9 -9 -20z"/>
<path d="M1500 1966 c0 -11 48 -99 78 -144 l29 -43 13 45 c12 43 11 48 -14 91
-20 33 -33 45 -51 45 -13 0 -30 3 -39 6 -9 3 -16 3 -16 0z"/>
<path d="M3210 1934 c-36 -18 -102 -45 -148 -60 -68 -22 -80 -29 -66 -37 34
-19 157 -47 206 -47 47 0 50 1 65 38 18 42 30 143 17 140 -5 0 -38 -16 -74
-34z"/>
<path d="M1610 1955 c0 -2 9 -18 19 -36 14 -22 21 -27 27 -17 4 7 14 23 22 36
14 22 13 22 -27 22 -22 0 -41 -2 -41 -5z"/>
<path d="M1677 1905 c-18 -38 -18 -38 8 -77 15 -22 28 -38 30 -36 1 1 -2 36
-9 77 l-11 74 -18 -38z"/>
<path d="M2794 1902 c3 -20 6 -45 6 -55 0 -15 6 -17 38 -11 67 12 68 26 6 67
l-57 37 7 -38z"/>
<path d="M1770 1921 c0 -5 35 -40 78 -79 l77 -70 59 30 60 30 -116 38 c-64 21
-126 43 -137 50 -12 6 -21 7 -21 1z"/>
<path d="M1727 1865 c12 -93 28 -140 49 -143 10 -1 25 2 33 7 12 8 9 18 -16
58 -17 26 -40 66 -52 88 l-20 40 6 -50z"/>
<path d="M1790 1832 c23 -42 45 -81 50 -85 4 -5 20 -3 34 5 l26 14 -75 71 -76
72 41 -77z"/>
<path d="M2152 1878 c-27 -17 -31 -23 -20 -33 7 -7 28 -15 46 -19 33 -6 33 -6
30 31 -4 44 -13 47 -56 21z"/>
<path d="M3405 1825 c-22 -14 -57 -30 -78 -37 -27 -8 -39 -18 -44 -37 -3 -14
-16 -50 -29 -79 -20 -46 -21 -51 -5 -43 31 17 136 124 170 174 17 26 31 47 29
47 -2 0 -21 -12 -43 -25z"/>
<path d="M1636 1824 c-11 -29 -6 -69 12 -92 14 -18 26 -23 55 -20 l36 3 -42
62 c-23 34 -45 62 -48 63 -4 0 -10 -7 -13 -16z"/>
<path d="M2905 1830 c-11 -4 -41 -32 -66 -61 -37 -44 -47 -65 -57 -117 -6 -35
-22 -88 -37 -119 l-25 -56 92 6 c51 3 127 15 168 26 68 18 80 25 123 73 47 51
127 163 127 177 0 4 -36 12 -80 19 -44 6 -108 23 -143 37 -69 27 -72 28 -102
15z"/>
<path d="M2015 1800 c-27 -17 -54 -32 -60 -34 -14 -6 26 -38 123 -97 94 -58
98 -57 117 18 l13 48 -41 42 c-56 55 -88 60 -152 23z"/>
<path d="M2818 1813 c-12 -3 -18 -14 -18 -31 l0 -26 30 29 c17 16 30 30 30 32
0 4 -20 2 -42 -4z"/>
<path d="M2180 1791 c13 -25 33 -28 28 -4 -2 10 -11 19 -21 21 -16 3 -17 1 -7
-17z"/>
<path d="M2720 1798 c-73 -11 -372 -13 -436 -4 -51 7 -51 7 -57 -21 -6 -25 1
-34 51 -80 59 -55 197 -158 223 -168 21 -8 123 62 210 143 65 61 70 70 67 102
l-3 35 -55 -7z"/>
<path d="M3235 1725 c-14 -25 -48 -74 -75 -110 l-49 -65 38 20 c22 11 49 35
60 54 20 32 64 146 56 146 -2 0 -15 -20 -30 -45z"/>
<path d="M1883 1738 c-13 -6 -23 -14 -23 -17 0 -11 125 -154 152 -174 26 -20
26 -20 71 2 50 24 79 52 61 58 -6 2 -59 35 -118 73 -59 39 -110 70 -114 69 -4
0 -17 -5 -29 -11z"/>
<path d="M1808 1713 c-10 -2 -18 -9 -18 -16 0 -22 156 -167 179 -167 20 0 16
8 -36 68 -33 37 -68 79 -78 95 -9 15 -20 26 -24 26 -3 -1 -14 -3 -23 -6z"/>
<path d="M2203 1665 l-20 -54 56 -24 c67 -30 168 -64 219 -73 34 -6 32 -3 -38
44 -41 28 -103 75 -136 106 l-61 55 -20 -54z"/>
<path d="M1730 1650 c24 -22 46 -38 48 -36 1 2 -5 20 -14 40 -15 30 -23 36
-48 36 l-31 -1 45 -39z"/>
<path d="M2695 1628 c-38 -33 -89 -71 -112 -86 -24 -15 -43 -30 -43 -33 0 -11
32 -20 97 -26 l61 -6 26 50 c26 53 51 135 45 151 -2 5 -35 -17 -74 -50z"/>
<path d="M1803 1621 c13 -24 36 -46 57 -56 34 -16 33 -14 -20 39 -30 31 -55
56 -56 56 -1 0 7 -18 19 -39z"/>
<path d="M2144 1569 c-10 -12 -36 -29 -57 -39 -35 -16 -36 -18 -20 -32 10 -9
44 -32 76 -53 l59 -37 66 15 c77 18 186 57 178 64 -2 3 -50 20 -105 39 -56 18
-114 40 -131 49 -38 20 -43 19 -66 -6z"/>
<path d="M3103 1525 c-42 -18 -130 -85 -112 -85 20 0 111 54 133 79 22 25 21
25 -21 6z"/>
<path d="M1895 1510 c23 -26 89 -65 125 -75 l25 -6 -25 20 c-46 38 -95 69
-120 76 l-25 8 20 -23z"/>
<path d="M1980 1506 c0 -11 140 -96 156 -95 16 0 15 2 -6 17 -13 9 -44 32 -67
50 -36 27 -83 43 -83 28z"/>
<path d="M2920 1474 c-36 -7 -100 -13 -142 -14 -74 0 -98 -10 -60 -25 9 -3 56
-9 103 -12 85 -6 87 -5 133 26 43 30 55 43 39 40 -5 -1 -37 -7 -73 -15z"/>
<path d="M2415 1451 c-33 -16 -87 -35 -119 -42 l-60 -13 40 -16 c69 -30 175
-52 212 -45 46 9 122 47 146 74 11 12 17 22 15 24 -25 17 -87 37 -126 41 -39
4 -59 0 -108 -23z"/>
<path d="M2655 1400 c-11 -12 -42 -36 -70 -52 l-50 -29 65 6 c87 9 137 20 207
47 l58 22 -55 7 c-30 4 -73 10 -95 14 -34 6 -43 3 -60 -15z"/>
<path d="M2225 1365 c33 -13 67 -24 75 -24 8 0 -12 11 -45 24 -33 14 -67 25
-75 24 -8 0 12 -11 45 -24z"/>
<path d="M3823 3178 c-30 -14 -29 -22 7 -85 34 -59 70 -73 70 -28 0 21 -45
127 -53 124 -1 0 -12 -5 -24 -11z"/>
<path d="M993 2134 c-47 -47 -13 -134 54 -134 67 0 97 77 52 134 -27 35 -71
35 -106 0z"/>
</g>
</svg>
